<mxfile host="app.diagrams.net" agent="Mozilla/5.0 (Macintosh; Intel Mac OS X 10_15_7) AppleWebKit/537.36 (KHTML, like Gecko) Chrome/135.0.0.0 Safari/537.36" version="27.0.4">
  <diagram name="Page-1" id="ixHXviUHKyeQuD1ECfg4">
    <mxGraphModel dx="1569" dy="1070" grid="1" gridSize="10" guides="1" tooltips="1" connect="1" arrows="1" fold="1" page="1" pageScale="1" pageWidth="827" pageHeight="1169" math="0" shadow="0" adaptiveColors="auto">
      <root>
        <mxCell id="0" />
        <mxCell id="1" parent="0" />
        <mxCell id="g68nLsKJVKv4zj9MhQJH-3" value="" style="rounded=1;whiteSpace=wrap;html=1;" vertex="1" parent="1">
          <mxGeometry x="180" y="80" width="520" height="520" as="geometry" />
        </mxCell>
        <mxCell id="LC72kPAoT7Dx3wpLuAG9-14" style="edgeStyle=orthogonalEdgeStyle;rounded=1;orthogonalLoop=1;jettySize=auto;html=1;labelBackgroundColor=none;strokeColor=#36393d;fontColor=default;startArrow=classic;startFill=1;fillColor=#cdeb8b;" parent="1" source="LC72kPAoT7Dx3wpLuAG9-1" target="LC72kPAoT7Dx3wpLuAG9-2" edge="1">
          <mxGeometry relative="1" as="geometry" />
        </mxCell>
        <mxCell id="fgDgBC3W2hMn7ghvb9zu-1" style="edgeStyle=none;curved=1;rounded=0;orthogonalLoop=1;jettySize=auto;html=1;fontSize=12;startSize=8;endSize=8;fillColor=#cdeb8b;strokeColor=#36393d;" parent="1" source="LC72kPAoT7Dx3wpLuAG9-1" target="LC72kPAoT7Dx3wpLuAG9-18" edge="1">
          <mxGeometry relative="1" as="geometry" />
        </mxCell>
        <mxCell id="LC72kPAoT7Dx3wpLuAG9-1" value="" style="points=[[0,0,0],[0.25,0,0],[0.5,0,0],[0.75,0,0],[1,0,0],[0,1,0],[0.25,1,0],[0.5,1,0],[0.75,1,0],[1,1,0],[0,0.25,0],[0,0.5,0],[0,0.75,0],[1,0.25,0],[1,0.5,0],[1,0.75,0]];outlineConnect=0;fillColor=#cdeb8b;strokeColor=#36393d;dashed=0;verticalLabelPosition=bottom;verticalAlign=top;align=center;html=1;fontSize=12;fontStyle=0;aspect=fixed;shape=mxgraph.aws4.resourceIcon;resIcon=mxgraph.aws4.lambda;labelBackgroundColor=none;rounded=1;" parent="1" vertex="1">
          <mxGeometry x="390" y="292.5" width="78" height="78" as="geometry" />
        </mxCell>
        <mxCell id="LC72kPAoT7Dx3wpLuAG9-2" value="" style="outlineConnect=0;fillColor=#cdeb8b;strokeColor=#36393d;dashed=0;verticalLabelPosition=bottom;verticalAlign=top;align=center;html=1;fontSize=12;fontStyle=0;aspect=fixed;pointerEvents=1;shape=mxgraph.aws4.bucket;labelBackgroundColor=none;rounded=1;" parent="1" vertex="1">
          <mxGeometry x="391.5" y="452.5" width="75" height="78" as="geometry" />
        </mxCell>
        <mxCell id="LC72kPAoT7Dx3wpLuAG9-4" value="" style="points=[[0,0,0],[0.25,0,0],[0.5,0,0],[0.75,0,0],[1,0,0],[0,1,0],[0.25,1,0],[0.5,1,0],[0.75,1,0],[1,1,0],[0,0.25,0],[0,0.5,0],[0,0.75,0],[1,0.25,0],[1,0.5,0],[1,0.75,0]];outlineConnect=0;fillColor=#cdeb8b;strokeColor=#36393d;dashed=0;verticalLabelPosition=bottom;verticalAlign=top;align=center;html=1;fontSize=12;fontStyle=0;aspect=fixed;shape=mxgraph.aws4.resourceIcon;resIcon=mxgraph.aws4.bedrock;labelBackgroundColor=none;rounded=1;" parent="1" vertex="1">
          <mxGeometry x="580" y="292.5" width="78" height="78" as="geometry" />
        </mxCell>
        <mxCell id="LC72kPAoT7Dx3wpLuAG9-7" value="" style="outlineConnect=0;dashed=0;verticalLabelPosition=bottom;verticalAlign=top;align=center;html=1;shape=mxgraph.aws3.lambda;fillColor=#cdeb8b;labelBackgroundColor=none;strokeColor=#36393d;rounded=1;" parent="1" vertex="1">
          <mxGeometry x="220" y="285" width="76.5" height="93" as="geometry" />
        </mxCell>
        <mxCell id="LC72kPAoT7Dx3wpLuAG9-9" value="" style="shape=umlActor;verticalLabelPosition=bottom;verticalAlign=top;html=1;outlineConnect=0;labelBackgroundColor=none;fillColor=#cdeb8b;strokeColor=#36393d;rounded=1;" parent="1" vertex="1">
          <mxGeometry x="100" y="301.5" width="30" height="60" as="geometry" />
        </mxCell>
        <mxCell id="LC72kPAoT7Dx3wpLuAG9-12" style="edgeStyle=orthogonalEdgeStyle;rounded=1;orthogonalLoop=1;jettySize=auto;html=1;entryX=0;entryY=0.5;entryDx=0;entryDy=0;entryPerimeter=0;labelBackgroundColor=none;strokeColor=#36393d;fontColor=default;fillColor=#cdeb8b;" parent="1" source="LC72kPAoT7Dx3wpLuAG9-9" target="LC72kPAoT7Dx3wpLuAG9-7" edge="1">
          <mxGeometry relative="1" as="geometry">
            <Array as="points">
              <mxPoint x="180" y="332" />
              <mxPoint x="180" y="332" />
            </Array>
          </mxGeometry>
        </mxCell>
        <mxCell id="LC72kPAoT7Dx3wpLuAG9-13" style="edgeStyle=orthogonalEdgeStyle;rounded=1;orthogonalLoop=1;jettySize=auto;html=1;entryX=0;entryY=0.5;entryDx=0;entryDy=0;entryPerimeter=0;labelBackgroundColor=none;strokeColor=#36393d;fontColor=default;startArrow=classic;startFill=1;fillColor=#cdeb8b;" parent="1" source="LC72kPAoT7Dx3wpLuAG9-7" target="LC72kPAoT7Dx3wpLuAG9-1" edge="1">
          <mxGeometry relative="1" as="geometry" />
        </mxCell>
        <mxCell id="LC72kPAoT7Dx3wpLuAG9-17" style="edgeStyle=orthogonalEdgeStyle;rounded=1;orthogonalLoop=1;jettySize=auto;html=1;entryX=0;entryY=0.5;entryDx=0;entryDy=0;entryPerimeter=0;labelBackgroundColor=none;strokeColor=#36393d;fontColor=default;startArrow=classic;startFill=1;fillColor=#cdeb8b;" parent="1" source="LC72kPAoT7Dx3wpLuAG9-1" target="LC72kPAoT7Dx3wpLuAG9-4" edge="1">
          <mxGeometry relative="1" as="geometry" />
        </mxCell>
        <mxCell id="LC72kPAoT7Dx3wpLuAG9-18" value="" style="outlineConnect=0;dashed=0;verticalLabelPosition=bottom;verticalAlign=top;align=center;html=1;shape=mxgraph.aws3.cloudwatch;fillColor=#cdeb8b;labelBackgroundColor=none;strokeColor=#36393d;rounded=1;" parent="1" vertex="1">
          <mxGeometry x="580" y="125" width="82.5" height="93" as="geometry" />
        </mxCell>
        <mxCell id="LC72kPAoT7Dx3wpLuAG9-20" value="Cloudwatch Logs" style="text;html=1;align=center;verticalAlign=middle;whiteSpace=wrap;rounded=1;labelBackgroundColor=none;" parent="1" vertex="1">
          <mxGeometry x="591.25" y="230" width="60" height="30" as="geometry" />
        </mxCell>
        <mxCell id="LC72kPAoT7Dx3wpLuAG9-22" value="User / Client" style="text;html=1;align=center;verticalAlign=middle;whiteSpace=wrap;rounded=1;labelBackgroundColor=none;" parent="1" vertex="1">
          <mxGeometry x="85" y="370.5" width="60" height="30" as="geometry" />
        </mxCell>
        <mxCell id="LC72kPAoT7Dx3wpLuAG9-23" value="Lambda askHandler.ts" style="text;html=1;align=center;verticalAlign=middle;whiteSpace=wrap;rounded=1;labelBackgroundColor=none;" parent="1" vertex="1">
          <mxGeometry x="399" y="235" width="60" height="30" as="geometry" />
        </mxCell>
        <mxCell id="LC72kPAoT7Dx3wpLuAG9-24" value="Knowledge Base S3" style="text;html=1;align=center;verticalAlign=middle;whiteSpace=wrap;rounded=1;labelBackgroundColor=none;" parent="1" vertex="1">
          <mxGeometry x="384.5" y="545" width="89" height="40" as="geometry" />
        </mxCell>
        <mxCell id="fgDgBC3W2hMn7ghvb9zu-3" value="" style="shape=document;whiteSpace=wrap;html=1;boundedLbl=1;fillColor=#cdeb8b;strokeColor=#36393d;" parent="1" vertex="1">
          <mxGeometry x="480" y="476.5" width="60" height="30" as="geometry" />
        </mxCell>
        <mxCell id="fgDgBC3W2hMn7ghvb9zu-9" value="API Gateway" style="text;html=1;align=center;verticalAlign=middle;whiteSpace=wrap;rounded=0;" parent="1" vertex="1">
          <mxGeometry x="228.25" y="400.5" width="60" height="30" as="geometry" />
        </mxCell>
        <mxCell id="g68nLsKJVKv4zj9MhQJH-1" value="AWS Bedrock FM" style="text;html=1;align=center;verticalAlign=middle;whiteSpace=wrap;rounded=0;" vertex="1" parent="1">
          <mxGeometry x="589" y="400.5" width="60" height="30" as="geometry" />
        </mxCell>
        <mxCell id="g68nLsKJVKv4zj9MhQJH-2" value="txt-file" style="text;html=1;align=center;verticalAlign=middle;whiteSpace=wrap;rounded=0;" vertex="1" parent="1">
          <mxGeometry x="480" y="515" width="60" height="30" as="geometry" />
        </mxCell>
        <mxCell id="g68nLsKJVKv4zj9MhQJH-5" value="AWS Account" style="dashed=0;outlineConnect=0;html=1;align=center;labelPosition=center;verticalLabelPosition=bottom;verticalAlign=top;shape=mxgraph.weblogos.aws" vertex="1" parent="1">
          <mxGeometry x="224.65" y="100" width="63.6" height="58.400000000000006" as="geometry" />
        </mxCell>
      </root>
    </mxGraphModel>
  </diagram>
</mxfile>
